<svg width="264px" height="264px" viewBox="0 0 264 280" version="1.1" xmlns="http://www.w3.org/2000/svg" xmlns:xlink="http://www.w3.org/1999/xlink"><g id="Top" stroke-width="1" fill-rule="evenodd"><defs><rect id="react-path-177" x="0" y="0" width="264" height="280"></rect><path d="M82.0179468,24.3784638 C74.9860629,23.6847351 66.6573358,23.2514721 58.3126144,23.245568 C39.0082164,23.2319099 19.618222,25.4833872 16,28 C6.29594493,35.2480719 2.53726005,62.445722 3,64 C2.67275588,65.2226722 1.34685629,65.488448 1,64 C0.280821545,53.7019177 1,1.72563718 58,1 C115,0.274362825 115.719178,53.7019177 115,64 C114.653144,65.488448 113.327244,65.2226722 113,64 C113.46274,62.445722 109.704055,35.2480719 100,28 C98.2407122,26.7763475 92.7526689,25.6101897 85.3587425,24.7390449 L89,16 L82.0179468,24.3784638 Z" id="react-path-178"></path><filter x="-0.8%" y="-2.0%" width="101.5%" height="108.0%" filterUnits="objectBoundingBox" id="react-filter-174"><feOffset dx="0" dy="2" in="SourceAlpha" result="shadowOffsetOuter1"></feOffset><feColorMatrix values="0 0 0 0 0   0 0 0 0 0   0 0 0 0 0  0 0 0 0.16 0" type="matrix" in="shadowOffsetOuter1" result="shadowMatrixOuter1"></feColorMatrix><feMerge><feMergeNode in="shadowMatrixOuter1"></feMergeNode><feMergeNode in="SourceGraphic"></feMergeNode></feMerge></filter></defs><mask id="react-mask-175" fill="white"><use xlink:href="#react-path-177"></use></mask><g id="Mask"></g><g id="Top/Short-Hair/The-Caesar-+-Side-Part" mask="url(#react-mask-175)"><g transform="translate(-1.000000, 0.000000)"><g id="Hair" stroke-width="1" fill-rule="evenodd" transform="translate(75.000000, 34.000000)"><mask id="react-mask-176" fill="white"><use xlink:href="#react-path-178"></use></mask><use id="Caesar" fill="#28354B" xlink:href="#react-path-178"></use><g id="Skin/👶🏽-03-Brown" mask="url(#react-mask-176)" fill="#4A312C"><g transform="translate(0.000000, 0.000000) " id="Color"><rect x="0" y="0" width="264" height="280"></rect></g></g></g></g></g></g></svg>