<svg width="264px" height="264px" viewBox="0 0 264 280" version="1.1" xmlns="http://www.w3.org/2000/svg" xmlns:xlink="http://www.w3.org/1999/xlink"><g id="Eyes/Squint-😊" transform="translate(0.000000, 8.000000)"><defs><path d="M14,14.0481187 C23.6099827,14.0481187 28,18.4994466 28,11.5617716 C28,4.62409673 21.7319865,0 14,0 C6.2680135,0 0,4.62409673 0,11.5617716 C0,18.4994466 4.39001726,14.0481187 14,14.0481187 Z" id="react-path-221"></path><path d="M14,14.0481187 C23.6099827,14.0481187 28,18.4994466 28,11.5617716 C28,4.62409673 21.7319865,0 14,0 C6.2680135,0 0,4.62409673 0,11.5617716 C0,18.4994466 4.39001726,14.0481187 14,14.0481187 Z" id="react-path-222"></path></defs><g id="Eye" transform="translate(16.000000, 13.000000)"><mask id="react-mask-223" fill="white"><use xlink:href="#react-path-221"></use></mask><use id="The-white-stuff" fill="#FFFFFF" xlink:href="#react-path-221"></use><circle fill-opacity="0.699999988" fill="#000000" mask="url(#react-mask-223)" cx="14" cy="10" r="6"></circle></g><g id="Eye" transform="translate(68.000000, 13.000000)"><mask id="react-mask-224" fill="white"><use xlink:href="#react-path-222"></use></mask><use id="Eyeball-Mask" fill="#FFFFFF" xlink:href="#react-path-222"></use><circle fill-opacity="0.699999988" fill="#000000" mask="url(#react-mask-224)" cx="14" cy="10" r="6"></circle></g></g></svg>