<svg width="264px" height="264px" viewBox="0 0 264 280" version="1.1" xmlns="http://www.w3.org/2000/svg" xmlns:xlink="http://www.w3.org/1999/xlink"><g id="Mouth/Grimace" transform="translate(2.000000, 52.000000)"><defs><rect id="react-path-227" x="24" y="9" width="60" height="22" rx="11"></rect></defs><rect id="Mouth" fill-opacity="0.599999964" fill="#000000" fill-rule="evenodd" x="22" y="7" width="64" height="26" rx="13"></rect><mask id="react-mask-228" fill="white"><use xlink:href="#react-path-227"></use></mask><use id="Mouth" fill="#FFFFFF" fill-rule="evenodd" xlink:href="#react-path-227"></use><path d="M71,22 L62,22 L62,34 L58,34 L58,22 L49,22 L49,34 L45,34 L45,22 L36,22 L36,34 L32,34 L32,22 L24,22 L24,18 L32,18 L32,6 L36,6 L36,18 L45,18 L45,6 L49,6 L49,18 L58,18 L58,6 L62,6 L62,18 L71,18 L71,6 L75,6 L75,18 L83.8666667,18 L83.8666667,22 L75,22 L75,34 L71,34 L71,22 Z" id="Grimace-Teeth" fill="#E6E6E6" fill-rule="evenodd" mask="url(#react-mask-228)"></path></g></svg>